<svg xmlns="http://www.w3.org/2000/svg" xmlns:xlink="http://www.w3.org/1999/xlink" x="0" y="0" width="412" height="217" style="
        width:412px;
        height:217px;
        background: #FFF;
        fill: none;
">
        
        
        <svg xmlns="http://www.w3.org/2000/svg" class="role-diagram-draw-area"><g class="shapes-region" style="stroke: black; fill: none;"><g class="composite-shape"><path class="real" d=" M90,2 L120,2 L120,32 L90,32 Z" style="stroke-width: 1; stroke: rgb(0, 0, 0); fill: rgb(141, 211, 199); fill-opacity: 1;"/></g><g class="composite-shape"><path class="real" d=" M120,2 L150,2 L150,32 L120,32 Z" style="stroke-width: 1; stroke: rgb(0, 0, 0); fill: rgb(141, 211, 199); fill-opacity: 1;"/></g><g class="composite-shape"><path class="real" d=" M150,2 L180,2 L180,32 L150,32 Z" style="stroke-width: 1; stroke: rgb(0, 0, 0); fill: rgb(141, 211, 199); fill-opacity: 1;"/></g><g class="composite-shape"><path class="real" d=" M180,2 L210,2 L210,32 L180,32 Z" style="stroke-width: 1; stroke: rgb(0, 0, 0); fill: rgb(141, 211, 199); fill-opacity: 1;"/></g><g class="composite-shape"><path class="real" d=" M210,2 L240,2 L240,32 L210,32 Z" style="stroke-width: 1; stroke: rgb(0, 0, 0); fill: rgb(141, 211, 199); fill-opacity: 1;"/></g><g class="composite-shape"><path class="real" d=" M240,2 L270,2 L270,32 L240,32 Z" style="stroke-width: 1; stroke: rgb(0, 0, 0); fill: rgb(141, 211, 199); fill-opacity: 1;"/></g><g class="composite-shape"><path class="real" d=" M270,2 L300,2 L300,32 L270,32 Z" style="stroke-width: 1; stroke: rgb(0, 0, 0); fill: rgb(141, 211, 199); fill-opacity: 1;"/></g><g class="composite-shape"><path class="real" d=" M300,2 L330,2 L330,32 L300,32 Z" style="stroke-width: 1; stroke: rgb(0, 0, 0); fill: rgb(141, 211, 199); fill-opacity: 1;"/></g><g class="composite-shape"><path class="real" d=" M330,2 L360,2 L360,32 L330,32 Z" style="stroke-width: 1; stroke: rgb(0, 0, 0); fill: rgb(141, 211, 199); fill-opacity: 1;"/></g><g class="composite-shape"><path class="real" d=" M360,2 L390,2 L390,32 L360,32 Z" style="stroke-width: 1; stroke: rgb(0, 0, 0); fill: rgb(141, 211, 199); fill-opacity: 1;"/></g><g class="composite-shape"><path class="real" d=" M90,47 L120,47 L120,77 L90,77 Z" style="stroke-width: 1; stroke: rgb(0, 0, 0); fill: rgb(141, 211, 199); fill-opacity: 1;"/></g><g class="composite-shape"><path class="real" d=" M120,47 L150,47 L150,77 L120,77 Z" style="stroke-width: 1; stroke: rgb(0, 0, 0); fill: rgb(141, 211, 199); fill-opacity: 1;"/></g><g class="composite-shape"><path class="real" d=" M150,47 L180,47 L180,77 L150,77 Z" style="stroke-width: 1; stroke: rgb(0, 0, 0); fill: rgb(255, 255, 179); fill-opacity: 1;"/></g><g class="composite-shape"><path class="real" d=" M180,47 L210,47 L210,77 L180,77 Z" style="stroke-width: 1; stroke: rgb(0, 0, 0); fill: rgb(255, 255, 179); fill-opacity: 1;"/></g><g class="composite-shape"><path class="real" d=" M210,47 L240,47 L240,77 L210,77 Z" style="stroke-width: 1; stroke: rgb(0, 0, 0); fill: rgb(255, 255, 179); fill-opacity: 1;"/></g><g class="composite-shape"><path class="real" d=" M240,47 L270,47 L270,77 L240,77 Z" style="stroke-width: 1; stroke: rgb(0, 0, 0); fill: rgb(255, 255, 179); fill-opacity: 1;"/></g><g class="composite-shape"><path class="real" d=" M270,47 L300,47 L300,77 L270,77 Z" style="stroke-width: 1; stroke: rgb(0, 0, 0); fill: rgb(255, 255, 179); fill-opacity: 1;"/></g><g class="composite-shape"><path class="real" d=" M300,47 L330,47 L330,77 L300,77 Z" style="stroke-width: 1; stroke: rgb(0, 0, 0); fill: rgb(190, 186, 218); fill-opacity: 1;"/></g><g class="composite-shape"><path class="real" d=" M330,47 L360,47 L360,77 L330,77 Z" style="stroke-width: 1; stroke: rgb(0, 0, 0); fill: rgb(190, 186, 218); fill-opacity: 1;"/></g><g class="composite-shape"><path class="real" d=" M360,47 L390,47 L390,77 L360,77 Z" style="stroke-width: 1; stroke: rgb(0, 0, 0); fill: rgb(190, 186, 218); fill-opacity: 1;"/></g><g class="composite-shape"><path class="real" d=" M90,92 L120,92 L120,122 L90,122 Z" style="stroke-width: 1; stroke: rgb(0, 0, 0); fill: rgb(141, 211, 199); fill-opacity: 1;"/></g><g class="composite-shape"><path class="real" d=" M120,92 L150,92 L150,122 L120,122 Z" style="stroke-width: 1; stroke: rgb(0, 0, 0); fill: rgb(255, 255, 179); fill-opacity: 1;"/></g><g class="composite-shape"><path class="real" d=" M150,92 L180,92 L180,122 L150,122 Z" style="stroke-width: 1; stroke: rgb(0, 0, 0); fill: rgb(190, 186, 218); fill-opacity: 1;"/></g><g class="composite-shape"><path class="real" d=" M180,92 L210,92 L210,122 L180,122 Z" style="stroke-width: 1; stroke: rgb(0, 0, 0); fill: rgb(141, 211, 199); fill-opacity: 1;"/></g><g class="composite-shape"><path class="real" d=" M210,92 L240,92 L240,122 L210,122 Z" style="stroke-width: 1; stroke: rgb(0, 0, 0); fill: rgb(255, 255, 179); fill-opacity: 1;"/></g><g class="composite-shape"><path class="real" d=" M240,92 L270,92 L270,122 L240,122 Z" style="stroke-width: 1; stroke: rgb(0, 0, 0); fill: rgb(190, 186, 218); fill-opacity: 1;"/></g><g class="composite-shape"><path class="real" d=" M270,92 L300,92 L300,122 L270,122 Z" style="stroke-width: 1; stroke: rgb(0, 0, 0); fill: rgb(141, 211, 199); fill-opacity: 1;"/></g><g class="composite-shape"><path class="real" d=" M300,92 L330,92 L330,122 L300,122 Z" style="stroke-width: 1; stroke: rgb(0, 0, 0); fill: rgb(255, 255, 179); fill-opacity: 1;"/></g><g class="composite-shape"><path class="real" d=" M330,92 L360,92 L360,122 L330,122 Z" style="stroke-width: 1; stroke: rgb(0, 0, 0); fill: rgb(190, 186, 218); fill-opacity: 1;"/></g><g class="composite-shape"><path class="real" d=" M360,92 L390,92 L390,122 L360,122 Z" style="stroke-width: 1; stroke: rgb(0, 0, 0); fill: rgb(141, 211, 199); fill-opacity: 1;"/></g><g class="composite-shape"><path class="real" d=" M90,137 L120,137 L120,167 L90,167 Z" style="stroke-width: 1; stroke: rgb(0, 0, 0); fill: rgb(141, 211, 199); fill-opacity: 1;"/></g><g class="composite-shape"><path class="real" d=" M120,137 L150,137 L150,167 L120,167 Z" style="stroke-width: 1; stroke: rgb(0, 0, 0); fill: rgb(141, 211, 199); fill-opacity: 1;"/></g><g class="composite-shape"><path class="real" d=" M150,137 L180,137 L180,167 L150,167 Z" style="stroke-width: 1; stroke: rgb(0, 0, 0); fill: rgb(255, 255, 179); fill-opacity: 1;"/></g><g class="composite-shape"><path class="real" d=" M180,137 L210,137 L210,167 L180,167 Z" style="stroke-width: 1; stroke: rgb(0, 0, 0); fill: rgb(255, 255, 179); fill-opacity: 1;"/></g><g class="composite-shape"><path class="real" d=" M210,137 L240,137 L240,167 L210,167 Z" style="stroke-width: 1; stroke: rgb(0, 0, 0); fill: rgb(190, 186, 218); fill-opacity: 1;"/></g><g class="composite-shape"><path class="real" d=" M240,137 L270,137 L270,167 L240,167 Z" style="stroke-width: 1; stroke: rgb(0, 0, 0); fill: rgb(190, 186, 218); fill-opacity: 1;"/></g><g class="composite-shape"><path class="real" d=" M270,137 L300,137 L300,167 L270,167 Z" style="stroke-width: 1; stroke: rgb(0, 0, 0); fill: rgb(141, 211, 199); fill-opacity: 1;"/></g><g class="composite-shape"><path class="real" d=" M300,137 L330,137 L330,167 L300,167 Z" style="stroke-width: 1; stroke: rgb(0, 0, 0); fill: rgb(141, 211, 199); fill-opacity: 1;"/></g><g class="composite-shape"><path class="real" d=" M330,137 L360,137 L360,167 L330,167 Z" style="stroke-width: 1; stroke: rgb(0, 0, 0); fill: rgb(255, 255, 179); fill-opacity: 1;"/></g><g class="composite-shape"><path class="real" d=" M360,137 L390,137 L390,167 L360,167 Z" style="stroke-width: 1; stroke: rgb(0, 0, 0); fill: rgb(255, 255, 179); fill-opacity: 1;"/></g><g class="composite-shape"><path class="real" d=" M90,182 L120,182 L120,212 L90,212 Z" style="stroke-width: 1; stroke: rgb(0, 0, 0); fill: rgb(141, 211, 199); fill-opacity: 1;"/></g><g class="composite-shape"><path class="real" d=" M120,182 L150,182 L150,212 L120,212 Z" style="stroke-width: 1; stroke: rgb(0, 0, 0); fill: rgb(190, 186, 218); fill-opacity: 1;"/></g><g class="composite-shape"><path class="real" d=" M150,182 L180,182 L180,212 L150,212 Z" style="stroke-width: 1; stroke: rgb(0, 0, 0); fill: rgb(141, 211, 199); fill-opacity: 1;"/></g><g class="composite-shape"><path class="real" d=" M180,182 L210,182 L210,212 L180,212 Z" style="stroke-width: 1; stroke: rgb(0, 0, 0); fill: rgb(141, 211, 199); fill-opacity: 1;"/></g><g class="composite-shape"><path class="real" d=" M210,182 L240,182 L240,212 L210,212 Z" style="stroke-width: 1; stroke: rgb(0, 0, 0); fill: rgb(255, 255, 179); fill-opacity: 1;"/></g><g class="composite-shape"><path class="real" d=" M240,182 L270,182 L270,212 L240,212 Z" style="stroke-width: 1; stroke: rgb(0, 0, 0); fill: rgb(190, 186, 218); fill-opacity: 1;"/></g><g class="composite-shape"><path class="real" d=" M270,182 L300,182 L300,212 L270,212 Z" style="stroke-width: 1; stroke: rgb(0, 0, 0); fill: rgb(190, 186, 218); fill-opacity: 1;"/></g><g class="composite-shape"><path class="real" d=" M300,182 L330,182 L330,212 L300,212 Z" style="stroke-width: 1; stroke: rgb(0, 0, 0); fill: rgb(141, 211, 199); fill-opacity: 1;"/></g><g class="composite-shape"><path class="real" d=" M330,182 L360,182 L360,212 L330,212 Z" style="stroke-width: 1; stroke: rgb(0, 0, 0); fill: rgb(190, 186, 218); fill-opacity: 1;"/></g><g class="composite-shape"><path class="real" d=" M360,182 L390,182 L390,212 L360,212 Z" style="stroke-width: 1; stroke: rgb(0, 0, 0); fill: rgb(255, 255, 179); fill-opacity: 1;"/></g><g/></g><g/><g/><g/></svg>
        <svg xmlns="http://www.w3.org/2000/svg" xmlns:xlink="http://www.w3.org/1999/xlink" width="410" height="215" style="width:410px;height:215px;font-family:Asana-Mathsf, Asana-Math, Asana;background:#FFF;"><g><g><g><g transform="matrix(1,0,0,1,18,22.5)"><path transform="matrix(0.015,0,0,-0.015,0,0)" d="M27 34C102 -7 163 -11 197 -11C331 -11 360 72 360 127C360 192 314 234 273 252C211 280 104 267 104 340C104 365 119 401 188 401C260 401 292 383 332 364L343 430C288 453 253 461 197 461C61 461 33 382 33 329C33 259 93 220 137 206C168 196 211 191 233 184C253 178 289 158 289 120C289 93 271 52 196 52C115 52 67 86 39 102ZM464 0L539 0L539 445L464 445ZM457 590L547 590L547 679L457 679ZM702 0L780 0L780 240C780 314 805 394 882 394C980 394 980 319 980 281L980 0L1058 0L1058 288C1058 358 1049 455 921 455C833 455 789 398 775 380L775 450L702 450ZM1166 -71C1166 -148 1265 -206 1388 -206C1510 -206 1610 -148 1610 -70C1610 -58 1608 -45 1605 -33C1577 67 1455 69 1389 69L1314 69C1266 69 1258 103 1258 122C1258 129 1259 139 1269 159C1291 145 1316 129 1360 129C1453 129 1520 207 1520 292C1520 335 1507 364 1481 399L1490 391C1508 392 1539 395 1565 395C1585 395 1604 394 1624 392L1613 455C1559 455 1506 445 1456 424L1458 422C1425 445 1397 455 1360 455C1278 455 1201 389 1201 292C1201 272 1204 232 1234 193L1234 192C1216 168 1205 141 1205 108C1205 76 1214 55 1230 32C1191 9 1166 -30 1166 -71ZM1236 -71C1236 -42 1258 -8 1299 -4L1328 -3L1391 -3C1499 -3 1540 -31 1540 -72C1540 -118 1468 -149 1387 -149C1332 -149 1236 -127 1236 -71ZM1271 292C1271 377 1324 398 1360 398C1414 398 1450 358 1450 293C1450 208 1397 187 1361 187C1307 187 1271 227 1271 292ZM1720 0L1795 0L1795 722L1720 722ZM1912 226C1912 102 1999 -11 2130 -11C2193 -11 2245 11 2288 40L2282 106C2238 74 2193 51 2130 51C2054 51 1986 117 1982 220L2292 220L2292 249C2283 420 2185 461 2114 461C2008 461 1912 360 1912 226ZM1987 275C1998 324 2038 399 2114 399C2143 399 2218 386 2235 275ZM2340 386L2424 386L2424 117C2424 7 2473 -11 2506 -11C2551 -11 2602 -1 2654 27L2638 86C2624 76 2593 53 2550 53C2498 53 2496 112 2496 140L2496 386L2637 386L2637 445L2496 445L2496 571L2426 571L2426 445L2340 445ZM2713 221C2713 85 2818 -11 2932 -11C3046 -11 3152 84 3152 220C3152 345 3060 461 2932 461C2814 461 2713 357 2713 221ZM2791 231C2791 352 2868 399 2932 399C2996 399 3073 353 3073 231C3073 106 2999 53 2932 53C2866 53 2791 105 2791 231ZM3263 0L3341 0L3341 240C3341 314 3366 394 3443 394C3541 394 3541 319 3541 281L3541 0L3619 0L3619 288C3619 358 3610 455 3482 455C3394 455 3350 398 3336 380L3336 450L3263 450Z" stroke="rgb(0,0,0)" stroke-opacity="1" stroke-width="8" fill="rgb(0,0,0)" fill-opacity="1"></path></g></g></g></g><g><g><g><g transform="matrix(1,0,0,1,41,67.5)"><path transform="matrix(0.015,0,0,-0.015,0,0)" d="M81 0L159 0L159 46C193 15 234 -11 293 -11C392 -11 480 86 480 224C480 344 415 455 316 455C285 455 220 448 156 397L156 722L81 722ZM159 133L159 320C159 357 214 394 266 394C320 394 401 356 401 223C401 92 315 50 258 50C229 50 199 62 176 90C163 109 159 107 159 133ZM598 0L673 0L673 722L598 722ZM786 221C786 85 891 -11 1005 -11C1119 -11 1225 84 1225 220C1225 345 1133 461 1005 461C887 461 786 357 786 221ZM864 231C864 352 941 399 1005 399C1069 399 1146 353 1146 231C1146 106 1072 53 1005 53C939 53 864 105 864 231ZM1319 223C1319 95 1413 -11 1536 -11C1605 -11 1654 11 1699 40L1694 107C1662 85 1615 53 1537 53C1453 53 1397 126 1397 223C1397 310 1441 397 1538 397C1617 397 1643 376 1682 351L1694 417C1633 452 1601 461 1539 461C1399 461 1319 339 1319 223ZM1811 0L1881 0L1881 142L1961 224L2117 0L2199 0L2009 273L2177 445L2087 445L1883 236L1883 722L1811 722Z" stroke="rgb(0,0,0)" stroke-opacity="1" stroke-width="8" fill="rgb(0,0,0)" fill-opacity="1"></path></g></g></g></g><g><g><g><g transform="matrix(1,0,0,1,40,112.5)"><path transform="matrix(0.015,0,0,-0.015,0,0)" d="M35 223C35 95 129 -11 252 -11C321 -11 370 11 415 40L410 107C378 85 331 53 253 53C169 53 113 126 113 223C113 310 157 397 254 397C333 397 359 376 398 351L410 417C349 452 317 461 255 461C115 461 35 339 35 223ZM458 445L645 18C649 10 650 6 650 1C650 -3 649 -8 646 -15C603 -119 595 -149 553 -149C536 -149 514 -143 480 -132L485 -197C509 -203 539 -205 558 -205C604 -205 633 -182 673 -90L890 445L815 445C749 281 684 118 682 50C673 107 673 134 537 445ZM940 223C940 95 1034 -11 1157 -11C1226 -11 1275 11 1320 40L1315 107C1283 85 1236 53 1158 53C1074 53 1018 126 1018 223C1018 310 1062 397 1159 397C1238 397 1264 376 1303 351L1315 417C1254 452 1222 461 1160 461C1020 461 940 339 940 223ZM1430 0L1505 0L1505 722L1430 722ZM1669 0L1744 0L1744 445L1669 445ZM1662 590L1752 590L1752 679L1662 679ZM1862 223C1862 95 1956 -11 2079 -11C2148 -11 2197 11 2242 40L2237 107C2205 85 2158 53 2080 53C1996 53 1940 126 1940 223C1940 310 1984 397 2081 397C2160 397 2186 376 2225 351L2237 417C2176 452 2144 461 2082 461C1942 461 1862 339 1862 223Z" stroke="rgb(0,0,0)" stroke-opacity="1" stroke-width="8" fill="rgb(0,0,0)" fill-opacity="1"></path></g></g></g></g><g><g><g><g transform="matrix(1,0,0,1,2,157.5)"><path transform="matrix(0.015,0,0,-0.015,0,0)" d="M81 0L159 0L159 46C193 15 234 -11 293 -11C392 -11 480 86 480 224C480 344 415 455 316 455C285 455 220 448 156 397L156 722L81 722ZM159 133L159 320C159 357 214 394 266 394C320 394 401 356 401 223C401 92 315 50 258 50C229 50 199 62 176 90C163 109 159 107 159 133ZM598 0L673 0L673 722L598 722ZM786 221C786 85 891 -11 1005 -11C1119 -11 1225 84 1225 220C1225 345 1133 461 1005 461C887 461 786 357 786 221ZM864 231C864 352 941 399 1005 399C1069 399 1146 353 1146 231C1146 106 1072 53 1005 53C939 53 864 105 864 231ZM1319 223C1319 95 1413 -11 1536 -11C1605 -11 1654 11 1699 40L1694 107C1662 85 1615 53 1537 53C1453 53 1397 126 1397 223C1397 310 1441 397 1538 397C1617 397 1643 376 1682 351L1694 417C1633 452 1601 461 1539 461C1399 461 1319 339 1319 223ZM1811 0L1881 0L1881 142L1961 224L2117 0L2199 0L2009 273L2177 445L2087 445L1883 236L1883 722L1811 722ZM2227 193L2493 193L2493 252L2227 252ZM2585 223C2585 95 2679 -11 2802 -11C2871 -11 2920 11 2965 40L2960 107C2928 85 2881 53 2803 53C2719 53 2663 126 2663 223C2663 310 2707 397 2804 397C2883 397 2909 376 2948 351L2960 417C2899 452 2867 461 2805 461C2665 461 2585 339 2585 223ZM3008 445L3195 18C3199 10 3200 6 3200 1C3200 -3 3199 -8 3196 -15C3153 -119 3145 -149 3103 -149C3086 -149 3064 -143 3030 -132L3035 -197C3059 -203 3089 -205 3108 -205C3154 -205 3183 -182 3223 -90L3440 445L3365 445C3299 281 3234 118 3232 50C3223 107 3223 134 3087 445ZM3490 223C3490 95 3584 -11 3707 -11C3776 -11 3825 11 3870 40L3865 107C3833 85 3786 53 3708 53C3624 53 3568 126 3568 223C3568 310 3612 397 3709 397C3788 397 3814 376 3853 351L3865 417C3804 452 3772 461 3710 461C3570 461 3490 339 3490 223ZM3980 0L4055 0L4055 722L3980 722ZM4219 0L4294 0L4294 445L4219 445ZM4212 590L4302 590L4302 679L4212 679ZM4412 223C4412 95 4506 -11 4629 -11C4698 -11 4747 11 4792 40L4787 107C4755 85 4708 53 4630 53C4546 53 4490 126 4490 223C4490 310 4534 397 4631 397C4710 397 4736 376 4775 351L4787 417C4726 452 4694 461 4632 461C4492 461 4412 339 4412 223Z" stroke="rgb(0,0,0)" stroke-opacity="1" stroke-width="8" fill="rgb(0,0,0)" fill-opacity="1"></path></g></g></g></g><g><g><g><g transform="matrix(1,0,0,1,29,202.5)"><path transform="matrix(0.015,0,0,-0.015,0,0)" d="M35 223C35 95 129 -11 252 -11C321 -11 370 11 415 40L410 107C378 85 331 53 253 53C169 53 113 126 113 223C113 310 157 397 254 397C333 397 359 376 398 351L410 417C349 452 317 461 255 461C115 461 35 339 35 223ZM524 122C524 70 524 -11 629 -11C684 -11 752 3 804 48L804 0L880 0L880 445L802 445L802 165C802 155 802 146 801 136C796 93 757 45 682 45C614 45 603 67 602 110L602 445L524 445ZM988 34C1063 -7 1124 -11 1158 -11C1292 -11 1321 72 1321 127C1321 192 1275 234 1234 252C1172 280 1065 267 1065 340C1065 365 1080 401 1149 401C1221 401 1253 383 1293 364L1304 430C1249 453 1214 461 1158 461C1022 461 994 382 994 329C994 259 1054 220 1098 206C1129 196 1172 191 1194 184C1214 178 1250 158 1250 120C1250 93 1232 52 1157 52C1076 52 1028 86 1000 102ZM1362 386L1446 386L1446 117C1446 7 1495 -11 1528 -11C1573 -11 1624 -1 1676 27L1660 86C1646 76 1615 53 1572 53C1520 53 1518 112 1518 140L1518 386L1659 386L1659 445L1518 445L1518 571L1448 571L1448 445L1362 445ZM1735 221C1735 85 1840 -11 1954 -11C2068 -11 2174 84 2174 220C2174 345 2082 461 1954 461C1836 461 1735 357 1735 221ZM1813 231C1813 352 1890 399 1954 399C2018 399 2095 353 2095 231C2095 106 2021 53 1954 53C1888 53 1813 105 1813 231ZM2285 0L2363 0L2363 240C2363 314 2388 394 2465 394C2563 394 2563 319 2563 281L2563 0L2641 0L2641 240C2641 314 2666 394 2743 394C2841 394 2840 281 2840 281L2840 0L2919 0L2919 288C2919 346 2916 455 2782 455C2691 455 2646 394 2631 374C2617 412 2587 455 2504 455C2416 455 2372 398 2358 380L2358 450L2285 450Z" stroke="rgb(0,0,0)" stroke-opacity="1" stroke-width="8" fill="rgb(0,0,0)" fill-opacity="1"></path></g></g></g></g></svg>
</svg>
